<svg width="1200" height="700" viewBox="0 0 1200 700" fill="none" xmlns="http://www.w3.org/2000/svg">
  <defs>
    <linearGradient id="bg" x1="0" y1="0" x2="1200" y2="700" gradientUnits="userSpaceOnUse">
      <stop stop-color="#0E2B2D"/>
      <stop offset="1" stop-color="#113A2B"/>
    </linearGradient>
    <linearGradient id="leaf" x1="290" y1="470" x2="910" y2="170" gradientUnits="userSpaceOnUse">
      <stop stop-color="#63D1A2"/>
      <stop offset="1" stop-color="#A1F39C"/>
    </linearGradient>
  </defs>
  <rect width="1200" height="700" rx="32" fill="url(#bg)"/>
  <circle cx="1035" cy="120" r="110" fill="#A1F39C" fill-opacity="0.18"/>
  <rect x="150" y="130" width="900" height="460" rx="30" fill="#0B1F22" stroke="#86E6BE" stroke-opacity="0.35"/>
  <path d="M250 510H950" stroke="#1E4C39" stroke-width="18" stroke-linecap="round"/>
  <path d="M330 510V350" stroke="#2E7B5A" stroke-width="10" stroke-linecap="round"/>
  <path d="M470 510V310" stroke="#2E7B5A" stroke-width="10" stroke-linecap="round"/>
  <path d="M610 510V290" stroke="#2E7B5A" stroke-width="10" stroke-linecap="round"/>
  <path d="M750 510V330" stroke="#2E7B5A" stroke-width="10" stroke-linecap="round"/>
  <path d="M890 510V360" stroke="#2E7B5A" stroke-width="10" stroke-linecap="round"/>
  <path d="M330 350C365 295 430 292 470 310" stroke="url(#leaf)" stroke-width="18" stroke-linecap="round"/>
  <path d="M470 310C525 245 585 253 610 290" stroke="url(#leaf)" stroke-width="18" stroke-linecap="round"/>
  <path d="M610 290C655 246 728 266 750 330" stroke="url(#leaf)" stroke-width="18" stroke-linecap="round"/>
  <path d="M750 330C792 298 858 318 890 360" stroke="url(#leaf)" stroke-width="18" stroke-linecap="round"/>
  <rect x="190" y="170" width="180" height="82" rx="14" fill="#112E32"/>
  <text x="214" y="222" fill="#DFFFEF" font-size="34" font-family="Segoe UI, Arial, sans-serif" font-weight="700">IoT</text>
  <text x="150" y="95" fill="#E6FFF5" font-size="42" font-family="Segoe UI, Arial, sans-serif" font-weight="700">Automated Greenhouse Monitoring</text>
</svg>
